<?xml version="1.0" encoding="UTF-8" standalone="no"?>
<!-- Created with Inkscape (http://www.inkscape.org/) -->
<svg id="svg4157" xmlns:rdf="http://www.w3.org/1999/02/22-rdf-syntax-ns#" xmlns="http://www.w3.org/2000/svg" height="16" width="16" version="1.1" xmlns:cc="http://creativecommons.org/ns#" xmlns:dc="http://purl.org/dc/elements/1.1/" viewBox="0 0 16 16">
 <metadata id="metadata4162">
  <rdf:RDF>
   <cc:Work rdf:about="">
    <dc:format>image/svg+xml</dc:format>
    <dc:type rdf:resource="http://purl.org/dc/dcmitype/StillImage"/>
    <dc:title/>
   </cc:Work>
  </rdf:RDF>
 </metadata>
 <g id="layer1" transform="translate(0 -1036.4)">
  <path id="path6805-1-4-0-2-2-0" fill="#e6e6e6" d="m7.3769 1036.4c-0.53986 0-0.96301 0.4517-0.96301 0.9912v0.765c0 0.2069-0.20303 0.4594-0.42486 0.538-0.20584 0.074-0.39674 0.16-0.5948 0.2549-0.0768 0.038-0.18688 0.056-0.28324 0.056-0.15697 0-0.30884-0.054-0.39652-0.1424l-0.53816-0.5664c-0.1849-0.1841-0.41819-0.2833-0.67976-0.2833-0.26146 0-0.52319 0.098-0.70809 0.2833l-0.87804 0.9064c-0.185 0.184-0.28313 0.4183-0.28324 0.6799 0 0.2614 0.0984 0.523 0.28324 0.7082l0.53815 0.5379c0.14658 0.1456 0.18699 0.4407 0.085 0.6516-0.0958 0.1979-0.18193 0.4174-0.25491 0.6232-0.0787 0.2216-0.3027 0.3963-0.50983 0.3963h-0.76473c-0.5398 0-0.99133 0.4517-0.99133 0.9914v1.2462c0 0.5395 0.45153 0.9631 0.99133 0.9631h0.76473c0.20713 0 0.43111 0.203 0.50983 0.4248 0.0728 0.2051 0.1589 0.3967 0.25491 0.5946 0.10188 0.2109 0.0616 0.5051-0.085 0.6517l-0.53815 0.5664c-0.38164 0.3815-0.38164 1.0062 0 1.3878l0.87804 0.8781c0.1849 0.184 0.44663 0.2832 0.70809 0.2832s0.49487-0.098 0.67976-0.2832l0.53816-0.5381c0.0877-0.088 0.23972-0.1424 0.39652-0.1424 0.0978 0 0.20526 0.021 0.28324 0.056 0.1982 0.096 0.38928 0.1819 0.5948 0.2547 0.22172 0.078 0.42486 0.3028 0.42486 0.5097v0.765c0 0.5395 0.42327 0.9912 0.96301 0.9912h1.2462c0.53979 0 0.99133-0.4517 0.99133-0.9912v-0.765c0-0.2069 0.17478-0.4313 0.39653-0.5097 0.20591-0.074 0.42507-0.16 0.62312-0.2547 0.0768-0.038 0.15857-0.056 0.25491-0.056 0.15697 0 0.30884 0.054 0.39652 0.1424l0.53815 0.5381c0.18492 0.184 0.44663 0.2832 0.7081 0.2832 0.26156 0 0.49487-0.098 0.67976-0.2832l0.87804-0.8781c0.38138-0.3818 0.38152-1.0061 0-1.3878l-0.53816-0.5664c-0.14641-0.1456-0.18686-0.4407-0.08496-0.6517 0.09568-0.1979 0.18183-0.3888 0.25491-0.5946 0.07872-0.2218 0.33107-0.4248 0.53814-0.4248h0.76476c0.53982 0 0.96299-0.4232 0.96299-0.9631v-1.2462c-0.000336-0.54-0.42333-0.9914-0.96299-0.9914h-0.76476c-0.20707 0-0.4594-0.2029-0.53814-0.4248-0.07296-0.2056-0.15905-0.3966-0.25491-0.5947-0.10208-0.2109-0.06144-0.5052 0.08496-0.6516l0.53816-0.5379c0.38167-0.3818 0.38167-1.0065 0-1.3881l-0.87804-0.9064c-0.18492-0.1841-0.41823-0.2833-0.67976-0.2833-0.26142 0-0.5232 0.098-0.7081 0.2833l-0.53815 0.5664c-0.08746 0.086-0.24019 0.1424-0.39652 0.1424-0.09789 0-0.17676-0.021-0.25491-0.056-0.19826-0.096-0.41699-0.1821-0.62312-0.2549-0.22179-0.078-0.39653-0.3311-0.39653-0.538v-0.765c0-0.5395-0.45153-0.9912-0.99133-0.9912h-1.2462zm0.62312 4.1071c2.1458 0 3.8803 1.7626 3.8803 3.9085s-1.7345 3.8804-3.8803 3.8804c-2.1459 0-3.8804-1.7345-3.8804-3.8804s1.7345-3.9085 3.8804-3.9085z"/>
 </g>
</svg>
