<?xml version="1.0" encoding="UTF-8" standalone="no"?>
<!-- Created with Inkscape (http://www.inkscape.org/) -->
<svg id="svg4157" xmlns:rdf="http://www.w3.org/1999/02/22-rdf-syntax-ns#" xmlns="http://www.w3.org/2000/svg" height="16" width="16" version="1.1" xmlns:cc="http://creativecommons.org/ns#" xmlns:dc="http://purl.org/dc/elements/1.1/" viewBox="0 0 16 16">
 <metadata id="metadata4162">
  <rdf:RDF>
   <cc:Work rdf:about="">
    <dc:format>image/svg+xml</dc:format>
    <dc:type rdf:resource="http://purl.org/dc/dcmitype/StillImage"/>
    <dc:title/>
   </cc:Work>
  </rdf:RDF>
 </metadata>
 <g id="layer1" transform="translate(0 -1036.4)">
  <path id="path4744" style="color-rendering:auto;text-decoration-color:#000000;color:#000000;isolation:auto;mix-blend-mode:normal;shape-rendering:auto;solid-color:#000000;block-progression:tb;text-decoration-line:none;text-decoration-style:solid;image-rendering:auto;white-space:normal;text-indent:0;text-transform:none" d="m1.2695 1037.5c-0.69436 0-1.2695 0.5775-1.2695 1.2715v7.9414c0 0.6939 0.57552 1.2695 1.2695 1.2695h4.666v1.9648h-0.95313a0.63575 0.63575 0 1 0 0 1.2715h1.4141a0.6353 0.6353 0 0 0 0.35351 0h4.1875a0.63575 0.63575 0 0 0 0 -1.2715h-0.95313v-1.9648h4.7441c0.69402 0 1.2715-0.5756 1.2715-1.2695v-7.9414c0-0.694-0.57712-1.2715-1.2715-1.2715h-13.459zm5.9356 10.482h1.5078v1.9648h-1.5078v-1.9648z" fill="#e6e6e6"/>
 </g>
</svg>
