<svg xmlns="http://www.w3.org/2000/svg" height="16" width="16"><g fill="#e6e6e6"><path d="M5.058 0C4.228 0 3.54.684 3.54 1.516v6.402h1V1.516c0-.295.224-.516.518-.516h5.305v2.734c0 .31.252.563.562.563h2.616v10.185c0 .295-.22.518-.515.518H5.058c-.294 0-.517-.223-.517-.518v-1.697h-1v1.697c0 .832.687 1.518 1.518 1.518h7.967c.832 0 1.516-.686 1.516-1.518V3.322a.5.5 0 0 0-.138-.345L11.682.152A.5.5 0 0 0 11.325 0H5.058z" style="line-height:normal;text-indent:0;text-align:start;text-decoration-line:none;text-decoration-style:solid;text-decoration-color:#000000;text-transform:none;block-progression:tb;isolation:auto;mix-blend-mode:normal" color="#000" font-family="sans-serif" white-space="normal" overflow="visible" solid-color="#000000"/><g stroke="#e6e6e6" stroke-width="1.5" stroke-linecap="round" stroke-linejoin="round"><path d="M1.966 10.347h7.287M6.338 13.272l2.915-2.915M6.338 7.43l2.915 2.917"/></g></g></svg>